<svg width="797" height="82" viewBox="0 0 797 82" fill="none" xmlns="http://www.w3.org/2000/svg">
<g filter="url(#filter0_d_32_10525)">
<rect x="12.1648" y="8" width="140.612" height="50" rx="25" fill="white"/>
<path d="M51.7491 39V27.3636H56.0105C56.8362 27.3636 57.5199 27.5 58.0616 27.7727C58.6033 28.0417 59.0086 28.4072 59.2775 28.8693C59.5465 29.3277 59.6809 29.8447 59.6809 30.4205C59.6809 30.9053 59.5919 31.3144 59.4139 31.6477C59.2358 31.9773 58.9972 32.2424 58.698 32.4432C58.4025 32.6402 58.0768 32.7841 57.7207 32.875V32.9886C58.1071 33.0076 58.484 33.1326 58.8514 33.3636C59.2226 33.5909 59.5294 33.9148 59.7718 34.3352C60.0143 34.7557 60.1355 35.267 60.1355 35.8693C60.1355 36.464 59.9953 36.9981 59.715 37.4716C59.4385 37.9413 59.0105 38.3144 58.4309 38.5909C57.8514 38.8636 57.1108 39 56.2093 39H51.7491ZM53.5048 37.4943H56.0389C56.8798 37.4943 57.4821 37.3314 57.8457 37.0057C58.2093 36.6799 58.3912 36.2727 58.3912 35.7841C58.3912 35.4167 58.2983 35.0795 58.1127 34.7727C57.9271 34.4659 57.662 34.2216 57.3173 34.0398C56.9764 33.858 56.5711 33.767 56.1014 33.767H53.5048V37.4943ZM53.5048 32.3977H55.8571C56.251 32.3977 56.6052 32.322 56.9196 32.1705C57.2377 32.0189 57.4896 31.8068 57.6752 31.5341C57.8646 31.2576 57.9593 30.9318 57.9593 30.5568C57.9593 30.0758 57.7908 29.6723 57.4537 29.3466C57.1165 29.0208 56.5995 28.858 55.9025 28.858H53.5048V32.3977ZM65.8429 39.1761C64.983 39.1761 64.2425 38.9924 63.6213 38.625C63.0038 38.2538 62.5266 37.733 62.1894 37.0625C61.8561 36.3883 61.6894 35.5985 61.6894 34.6932C61.6894 33.7992 61.8561 33.0114 62.1894 32.3295C62.5266 31.6477 62.9963 31.1155 63.5985 30.733C64.2046 30.3504 64.9129 30.1591 65.7235 30.1591C66.216 30.1591 66.6932 30.2405 67.1554 30.4034C67.6175 30.5663 68.0322 30.822 68.3997 31.1705C68.7671 31.5189 69.0569 31.9716 69.269 32.5284C69.4811 33.0814 69.5872 33.7538 69.5872 34.5455V35.1477H62.6497V33.875H67.9224C67.9224 33.428 67.8315 33.0322 67.6497 32.6875C67.4679 32.339 67.2122 32.0644 66.8826 31.8636C66.5569 31.6629 66.1743 31.5625 65.7349 31.5625C65.2576 31.5625 64.841 31.6799 64.4849 31.9148C64.1326 32.1458 63.8599 32.4489 63.6667 32.8239C63.4773 33.1951 63.3826 33.5985 63.3826 34.0341V35.0284C63.3826 35.6117 63.4849 36.108 63.6894 36.517C63.8978 36.9261 64.1876 37.2386 64.5588 37.4545C64.93 37.6667 65.3637 37.7727 65.8599 37.7727C66.1819 37.7727 66.4754 37.7273 66.7406 37.6364C67.0057 37.5417 67.2349 37.4015 67.4281 37.2159C67.6213 37.0303 67.769 36.8011 67.8713 36.5284L69.4792 36.8182C69.3504 37.2917 69.1194 37.7064 68.786 38.0625C68.4565 38.4148 68.0417 38.6894 67.5417 38.8864C67.0455 39.0795 66.4792 39.1761 65.8429 39.1761ZM71.4721 39V30.2727H73.1142V31.6591H73.2051C73.3642 31.1894 73.6445 30.8201 74.046 30.5511C74.4513 30.2784 74.9096 30.142 75.421 30.142C75.527 30.142 75.652 30.1458 75.796 30.1534C75.9437 30.161 76.0592 30.1705 76.1426 30.1818V31.8068C76.0744 31.7879 75.9532 31.767 75.7789 31.7443C75.6047 31.7178 75.4304 31.7045 75.2562 31.7045C74.8547 31.7045 74.4967 31.7898 74.1823 31.9602C73.8717 32.1269 73.6255 32.3598 73.4437 32.6591C73.2619 32.9545 73.171 33.2917 73.171 33.6705V39H71.4721ZM80.0744 39.1932C79.5214 39.1932 79.0214 39.0909 78.5744 38.8864C78.1274 38.678 77.7733 38.3769 77.5119 37.983C77.2543 37.589 77.1255 37.1061 77.1255 36.5341C77.1255 36.0417 77.2202 35.6364 77.4096 35.3182C77.599 35 77.8547 34.7481 78.1767 34.5625C78.4986 34.3769 78.8585 34.2367 79.2562 34.142C79.6539 34.0473 80.0592 33.9754 80.4721 33.9261C80.9948 33.8655 81.4191 33.8163 81.7448 33.7784C82.0706 33.7367 82.3073 33.6705 82.4551 33.5795C82.6028 33.4886 82.6767 33.3409 82.6767 33.1364V33.0966C82.6767 32.6004 82.5365 32.2159 82.2562 31.9432C81.9797 31.6705 81.5668 31.5341 81.0176 31.5341C80.4456 31.5341 79.9948 31.661 79.6653 31.9148C79.3395 32.1648 79.1142 32.4432 78.9892 32.75L77.3926 32.3864C77.582 31.8561 77.8585 31.428 78.2221 31.1023C78.5895 30.7727 79.0119 30.5341 79.4892 30.3864C79.9664 30.2348 80.4683 30.1591 80.9948 30.1591C81.3433 30.1591 81.7126 30.2008 82.1028 30.2841C82.4967 30.3636 82.8642 30.5114 83.2051 30.7273C83.5498 30.9432 83.832 31.2519 84.0517 31.6534C84.2714 32.0511 84.3812 32.5682 84.3812 33.2045V39H82.7221V37.8068H82.6539C82.5441 38.0265 82.3793 38.2424 82.1596 38.4545C81.9399 38.6667 81.6577 38.8428 81.313 38.983C80.9683 39.1231 80.5554 39.1932 80.0744 39.1932ZM80.4437 37.8295C80.9134 37.8295 81.3149 37.7367 81.6483 37.5511C81.9854 37.3655 82.2411 37.1231 82.4153 36.8239C82.5933 36.5208 82.6823 36.197 82.6823 35.8523V34.7273C82.6217 34.7879 82.5043 34.8447 82.3301 34.8977C82.1596 34.947 81.9645 34.9905 81.7448 35.0284C81.5251 35.0625 81.3111 35.0947 81.1028 35.125C80.8945 35.1515 80.7202 35.1742 80.5801 35.1932C80.2505 35.2348 79.9494 35.3049 79.6767 35.4034C79.4077 35.5019 79.1918 35.6439 79.0289 35.8295C78.8698 36.0114 78.7903 36.2538 78.7903 36.5568C78.7903 36.9773 78.9456 37.2955 79.2562 37.5114C79.5668 37.7235 79.9626 37.8295 80.4437 37.8295ZM88.3429 33.8182V39H86.644V30.2727H88.2747V31.6932H88.3826C88.5834 31.2311 88.8978 30.8598 89.3258 30.5795C89.7576 30.2992 90.3012 30.1591 90.9565 30.1591C91.5512 30.1591 92.072 30.2841 92.519 30.5341C92.966 30.7803 93.3126 31.1477 93.5588 31.6364C93.805 32.125 93.9281 32.7292 93.9281 33.4489V39H92.2292V33.6534C92.2292 33.0208 92.0644 32.5265 91.7349 32.1705C91.4054 31.8106 90.9527 31.6307 90.3769 31.6307C89.983 31.6307 89.6326 31.7159 89.3258 31.8864C89.0228 32.0568 88.7822 32.3068 88.6042 32.6364C88.43 32.9621 88.3429 33.3561 88.3429 33.8182ZM99.4735 39.1705C98.769 39.1705 98.1402 38.9905 97.5872 38.6307C97.0379 38.267 96.6061 37.75 96.2917 37.0795C95.9811 36.4053 95.8258 35.5966 95.8258 34.6534C95.8258 33.7102 95.983 32.9034 96.2974 32.233C96.6156 31.5625 97.0512 31.0492 97.6042 30.6932C98.1572 30.3371 98.7841 30.1591 99.4849 30.1591C100.027 30.1591 100.462 30.25 100.792 30.4318C101.125 30.6098 101.383 30.8182 101.564 31.0568C101.75 31.2955 101.894 31.5057 101.996 31.6875H102.099V27.3636H103.797V39H102.138V37.642H101.996C101.894 37.8277 101.746 38.0398 101.553 38.2784C101.364 38.517 101.102 38.7254 100.769 38.9034C100.436 39.0814 100.004 39.1705 99.4735 39.1705ZM99.8485 37.7216C100.337 37.7216 100.75 37.5928 101.087 37.3352C101.428 37.0739 101.686 36.7121 101.86 36.25C102.038 35.7879 102.127 35.25 102.127 34.6364C102.127 34.0303 102.04 33.5 101.866 33.0455C101.691 32.5909 101.436 32.2367 101.099 31.983C100.761 31.7292 100.345 31.6023 99.8485 31.6023C99.3372 31.6023 98.911 31.7348 98.5701 32C98.2292 32.2652 97.9716 32.6269 97.7974 33.0852C97.6269 33.5436 97.5417 34.0606 97.5417 34.6364C97.5417 35.2197 97.6288 35.7443 97.8031 36.2102C97.9773 36.6761 98.2349 37.0455 98.5758 37.3182C98.9205 37.5871 99.3447 37.7216 99.8485 37.7216ZM108.762 39.1932C108.209 39.1932 107.709 39.0909 107.262 38.8864C106.815 38.678 106.461 38.3769 106.199 37.983C105.942 37.589 105.813 37.1061 105.813 36.5341C105.813 36.0417 105.908 35.6364 106.097 35.3182C106.287 35 106.542 34.7481 106.864 34.5625C107.186 34.3769 107.546 34.2367 107.944 34.142C108.341 34.0473 108.747 33.9754 109.16 33.9261C109.682 33.8655 110.107 33.8163 110.432 33.7784C110.758 33.7367 110.995 33.6705 111.143 33.5795C111.29 33.4886 111.364 33.3409 111.364 33.1364V33.0966C111.364 32.6004 111.224 32.2159 110.944 31.9432C110.667 31.6705 110.254 31.5341 109.705 31.5341C109.133 31.5341 108.682 31.661 108.353 31.9148C108.027 32.1648 107.802 32.4432 107.677 32.75L106.08 32.3864C106.269 31.8561 106.546 31.428 106.91 31.1023C107.277 30.7727 107.699 30.5341 108.177 30.3864C108.654 30.2348 109.156 30.1591 109.682 30.1591C110.031 30.1591 110.4 30.2008 110.79 30.2841C111.184 30.3636 111.552 30.5114 111.893 30.7273C112.237 30.9432 112.519 31.2519 112.739 31.6534C112.959 32.0511 113.069 32.5682 113.069 33.2045V39H111.41V37.8068H111.341C111.232 38.0265 111.067 38.2424 110.847 38.4545C110.627 38.6667 110.345 38.8428 110.001 38.983C109.656 39.1231 109.243 39.1932 108.762 39.1932ZM109.131 37.8295C109.601 37.8295 110.002 37.7367 110.336 37.5511C110.673 37.3655 110.929 37.1231 111.103 36.8239C111.281 36.5208 111.37 36.197 111.37 35.8523V34.7273C111.309 34.7879 111.192 34.8447 111.018 34.8977C110.847 34.947 110.652 34.9905 110.432 35.0284C110.213 35.0625 109.999 35.0947 109.79 35.125C109.582 35.1515 109.408 35.1742 109.268 35.1932C108.938 35.2348 108.637 35.3049 108.364 35.4034C108.095 35.5019 107.879 35.6439 107.716 35.8295C107.557 36.0114 107.478 36.2538 107.478 36.5568C107.478 36.9773 107.633 37.2955 107.944 37.5114C108.254 37.7235 108.65 37.8295 109.131 37.8295Z" fill="#EE269D"/>
<rect x="13.1648" y="9" width="138.612" height="48" rx="24" stroke="url(#paint0_linear_32_10525)" stroke-width="2"/>
</g>
<g filter="url(#filter1_b_32_10525)">
<rect x="232.777" y="8" width="140.612" height="50" rx="25" fill="url(#paint1_linear_32_10525)"/>
<rect x="232.777" y="8" width="140.612" height="50" rx="25" fill="#EE269D"/>
<path d="M282.844 39H280.98L285.168 27.3636H287.196L291.384 39H289.52L286.23 29.4773H286.139L282.844 39ZM283.156 34.4432H289.202V35.9205H283.156V34.4432ZM296.463 39.1761C295.618 39.1761 294.891 38.9848 294.281 38.6023C293.675 38.2159 293.209 37.6837 292.884 37.0057C292.558 36.3277 292.395 35.5511 292.395 34.6761C292.395 33.7898 292.562 33.0076 292.895 32.3295C293.228 31.6477 293.698 31.1155 294.304 30.733C294.91 30.3504 295.624 30.1591 296.446 30.1591C297.109 30.1591 297.7 30.2822 298.219 30.5284C298.738 30.7708 299.156 31.1117 299.474 31.5511C299.796 31.9905 299.988 32.5038 300.048 33.0909H298.395C298.304 32.6818 298.096 32.3295 297.77 32.0341C297.448 31.7386 297.016 31.5909 296.474 31.5909C296.001 31.5909 295.586 31.7159 295.23 31.9659C294.878 32.2121 294.603 32.5644 294.406 33.0227C294.209 33.4773 294.111 34.0152 294.111 34.6364C294.111 35.2727 294.207 35.822 294.401 36.2841C294.594 36.7462 294.867 37.1042 295.219 37.358C295.575 37.6117 295.993 37.7386 296.474 37.7386C296.796 37.7386 297.088 37.6799 297.349 37.5625C297.615 37.4413 297.836 37.2689 298.014 37.0455C298.196 36.822 298.323 36.553 298.395 36.2386H300.048C299.988 36.803 299.804 37.3068 299.497 37.75C299.19 38.1932 298.779 38.5417 298.264 38.7955C297.753 39.0492 297.153 39.1761 296.463 39.1761ZM304.405 39.1932C303.852 39.1932 303.352 39.0909 302.905 38.8864C302.458 38.678 302.104 38.3769 301.842 37.983C301.585 37.589 301.456 37.1061 301.456 36.5341C301.456 36.0417 301.551 35.6364 301.74 35.3182C301.93 35 302.185 34.7481 302.507 34.5625C302.829 34.3769 303.189 34.2367 303.587 34.142C303.984 34.0473 304.39 33.9754 304.803 33.9261C305.325 33.8655 305.75 33.8163 306.075 33.7784C306.401 33.7367 306.638 33.6705 306.786 33.5795C306.933 33.4886 307.007 33.3409 307.007 33.1364V33.0966C307.007 32.6004 306.867 32.2159 306.587 31.9432C306.31 31.6705 305.897 31.5341 305.348 31.5341C304.776 31.5341 304.325 31.661 303.996 31.9148C303.67 32.1648 303.445 32.4432 303.32 32.75L301.723 32.3864C301.912 31.8561 302.189 31.428 302.553 31.1023C302.92 30.7727 303.342 30.5341 303.82 30.3864C304.297 30.2348 304.799 30.1591 305.325 30.1591C305.674 30.1591 306.043 30.2008 306.433 30.2841C306.827 30.3636 307.195 30.5114 307.536 30.7273C307.88 30.9432 308.162 31.2519 308.382 31.6534C308.602 32.0511 308.712 32.5682 308.712 33.2045V39H307.053V37.8068H306.984C306.875 38.0265 306.71 38.2424 306.49 38.4545C306.27 38.6667 305.988 38.8428 305.644 38.983C305.299 39.1231 304.886 39.1932 304.405 39.1932ZM304.774 37.8295C305.244 37.8295 305.645 37.7367 305.979 37.5511C306.316 37.3655 306.572 37.1231 306.746 36.8239C306.924 36.5208 307.013 36.197 307.013 35.8523V34.7273C306.952 34.7879 306.835 34.8447 306.661 34.8977C306.49 34.947 306.295 34.9905 306.075 35.0284C305.856 35.0625 305.642 35.0947 305.433 35.125C305.225 35.1515 305.051 35.1742 304.911 35.1932C304.581 35.2348 304.28 35.3049 304.007 35.4034C303.738 35.5019 303.522 35.6439 303.359 35.8295C303.2 36.0114 303.121 36.2538 303.121 36.5568C303.121 36.9773 303.276 37.2955 303.587 37.5114C303.897 37.7235 304.293 37.8295 304.774 37.8295ZM310.974 39V30.2727H312.617V31.6591H312.707C312.867 31.1894 313.147 30.8201 313.548 30.5511C313.954 30.2784 314.412 30.142 314.923 30.142C315.029 30.142 315.154 30.1458 315.298 30.1534C315.446 30.161 315.562 30.1705 315.645 30.1818V31.8068C315.577 31.7879 315.456 31.767 315.281 31.7443C315.107 31.7178 314.933 31.7045 314.759 31.7045C314.357 31.7045 313.999 31.7898 313.685 31.9602C313.374 32.1269 313.128 32.3598 312.946 32.6591C312.764 32.9545 312.673 33.2917 312.673 33.6705V39H310.974ZM319.577 39.1932C319.024 39.1932 318.524 39.0909 318.077 38.8864C317.63 38.678 317.276 38.3769 317.014 37.983C316.757 37.589 316.628 37.1061 316.628 36.5341C316.628 36.0417 316.723 35.6364 316.912 35.3182C317.101 35 317.357 34.7481 317.679 34.5625C318.001 34.3769 318.361 34.2367 318.759 34.142C319.156 34.0473 319.562 33.9754 319.974 33.9261C320.497 33.8655 320.921 33.8163 321.247 33.7784C321.573 33.7367 321.81 33.6705 321.957 33.5795C322.105 33.4886 322.179 33.3409 322.179 33.1364V33.0966C322.179 32.6004 322.039 32.2159 321.759 31.9432C321.482 31.6705 321.069 31.5341 320.52 31.5341C319.948 31.5341 319.497 31.661 319.168 31.9148C318.842 32.1648 318.617 32.4432 318.492 32.75L316.895 32.3864C317.084 31.8561 317.361 31.428 317.724 31.1023C318.092 30.7727 318.514 30.5341 318.992 30.3864C319.469 30.2348 319.971 30.1591 320.497 30.1591C320.846 30.1591 321.215 30.2008 321.605 30.2841C321.999 30.3636 322.367 30.5114 322.707 30.7273C323.052 30.9432 323.334 31.2519 323.554 31.6534C323.774 32.0511 323.884 32.5682 323.884 33.2045V39H322.224V37.8068H322.156C322.046 38.0265 321.882 38.2424 321.662 38.4545C321.442 38.6667 321.16 38.8428 320.815 38.983C320.471 39.1231 320.058 39.1932 319.577 39.1932ZM319.946 37.8295C320.416 37.8295 320.817 37.7367 321.151 37.5511C321.488 37.3655 321.743 37.1231 321.918 36.8239C322.096 36.5208 322.185 36.197 322.185 35.8523V34.7273C322.124 34.7879 322.007 34.8447 321.832 34.8977C321.662 34.947 321.467 34.9905 321.247 35.0284C321.028 35.0625 320.813 35.0947 320.605 35.125C320.397 35.1515 320.223 35.1742 320.082 35.1932C319.753 35.2348 319.452 35.3049 319.179 35.4034C318.91 35.5019 318.694 35.6439 318.531 35.8295C318.372 36.0114 318.293 36.2538 318.293 36.5568C318.293 36.9773 318.448 37.2955 318.759 37.5114C319.069 37.7235 319.465 37.8295 319.946 37.8295Z" fill="white"/>
<rect x="233.777" y="9" width="138.612" height="48" rx="24" stroke="url(#paint2_linear_32_10525)" stroke-width="2"/>
</g>
<g filter="url(#filter2_b_32_10525)">
<rect x="453.388" y="8" width="140.612" height="50" rx="25" fill="url(#paint3_linear_32_10525)"/>
<rect x="453.388" y="8" width="140.612" height="50" rx="25" fill="#EE269D"/>
<path d="M497.973 39V27.3636H499.728V32.9205H499.87L504.751 27.3636H506.961L502.268 32.6023L506.978 39H504.865L501.103 33.8011L499.728 35.3807V39H497.973ZM511.497 39.1761C510.679 39.1761 509.965 38.9886 509.355 38.6136C508.745 38.2386 508.271 37.714 507.934 37.0398C507.597 36.3655 507.429 35.5777 507.429 34.6761C507.429 33.7708 507.597 32.9792 507.934 32.3011C508.271 31.6231 508.745 31.0966 509.355 30.7216C509.965 30.3466 510.679 30.1591 511.497 30.1591C512.315 30.1591 513.029 30.3466 513.639 30.7216C514.249 31.0966 514.722 31.6231 515.059 32.3011C515.396 32.9792 515.565 33.7708 515.565 34.6761C515.565 35.5777 515.396 36.3655 515.059 37.0398C514.722 37.714 514.249 38.2386 513.639 38.6136C513.029 38.9886 512.315 39.1761 511.497 39.1761ZM511.502 37.75C512.033 37.75 512.472 37.6098 512.821 37.3295C513.169 37.0492 513.427 36.6761 513.593 36.2102C513.764 35.7443 513.849 35.2311 513.849 34.6705C513.849 34.1136 513.764 33.6023 513.593 33.1364C513.427 32.6667 513.169 32.2898 512.821 32.0057C512.472 31.7216 512.033 31.5795 511.502 31.5795C510.968 31.5795 510.525 31.7216 510.173 32.0057C509.824 32.2898 509.565 32.6667 509.394 33.1364C509.228 33.6023 509.144 34.1136 509.144 34.6705C509.144 35.2311 509.228 35.7443 509.394 36.2102C509.565 36.6761 509.824 37.0492 510.173 37.3295C510.525 37.6098 510.968 37.75 511.502 37.75ZM519.16 33.8182V39H517.461V30.2727H519.092V31.6932H519.2C519.401 31.2311 519.715 30.8598 520.143 30.5795C520.575 30.2992 521.118 30.1591 521.774 30.1591C522.368 30.1591 522.889 30.2841 523.336 30.5341C523.783 30.7803 524.13 31.1477 524.376 31.6364C524.622 32.125 524.745 32.7292 524.745 33.4489V39H523.046V33.6534C523.046 33.0208 522.882 32.5265 522.552 32.1705C522.223 31.8106 521.77 31.6307 521.194 31.6307C520.8 31.6307 520.45 31.7159 520.143 31.8864C519.84 32.0568 519.599 32.3068 519.421 32.6364C519.247 32.9621 519.16 33.3561 519.16 33.8182ZM531.098 30.2727V31.6364H526.331V30.2727H531.098ZM527.609 28.1818H529.308V36.4375C529.308 36.767 529.357 37.0152 529.456 37.1818C529.554 37.3447 529.681 37.4564 529.836 37.517C529.995 37.5739 530.168 37.6023 530.353 37.6023C530.49 37.6023 530.609 37.5928 530.711 37.5739C530.814 37.5549 530.893 37.5398 530.95 37.5284L531.257 38.9318C531.158 38.9697 531.018 39.0076 530.836 39.0455C530.654 39.0871 530.427 39.1098 530.154 39.1136C529.707 39.1212 529.291 39.0417 528.904 38.875C528.518 38.7083 528.206 38.4508 527.967 38.1023C527.728 37.7538 527.609 37.3163 527.609 36.7898V28.1818ZM535.517 39.1932C534.964 39.1932 534.464 39.0909 534.017 38.8864C533.57 38.678 533.215 38.3769 532.954 37.983C532.697 37.589 532.568 37.1061 532.568 36.5341C532.568 36.0417 532.662 35.6364 532.852 35.3182C533.041 35 533.297 34.7481 533.619 34.5625C533.941 34.3769 534.301 34.2367 534.698 34.142C535.096 34.0473 535.501 33.9754 535.914 33.9261C536.437 33.8655 536.861 33.8163 537.187 33.7784C537.513 33.7367 537.75 33.6705 537.897 33.5795C538.045 33.4886 538.119 33.3409 538.119 33.1364V33.0966C538.119 32.6004 537.979 32.2159 537.698 31.9432C537.422 31.6705 537.009 31.5341 536.46 31.5341C535.888 31.5341 535.437 31.661 535.108 31.9148C534.782 32.1648 534.556 32.4432 534.431 32.75L532.835 32.3864C533.024 31.8561 533.301 31.428 533.664 31.1023C534.032 30.7727 534.454 30.5341 534.931 30.3864C535.409 30.2348 535.911 30.1591 536.437 30.1591C536.786 30.1591 537.155 30.2008 537.545 30.2841C537.939 30.3636 538.306 30.5114 538.647 30.7273C538.992 30.9432 539.274 31.2519 539.494 31.6534C539.714 32.0511 539.823 32.5682 539.823 33.2045V39H538.164V37.8068H538.096C537.986 38.0265 537.822 38.2424 537.602 38.4545C537.382 38.6667 537.1 38.8428 536.755 38.983C536.411 39.1231 535.998 39.1932 535.517 39.1932ZM535.886 37.8295C536.356 37.8295 536.757 37.7367 537.09 37.5511C537.428 37.3655 537.683 37.1231 537.858 36.8239C538.036 36.5208 538.125 36.197 538.125 35.8523V34.7273C538.064 34.7879 537.947 34.8447 537.772 34.8977C537.602 34.947 537.407 34.9905 537.187 35.0284C536.967 35.0625 536.753 35.0947 536.545 35.125C536.337 35.1515 536.162 35.1742 536.022 35.1932C535.693 35.2348 535.392 35.3049 535.119 35.4034C534.85 35.5019 534.634 35.6439 534.471 35.8295C534.312 36.0114 534.233 36.2538 534.233 36.5568C534.233 36.9773 534.388 37.2955 534.698 37.5114C535.009 37.7235 535.405 37.8295 535.886 37.8295ZM543.649 36.0398L543.637 33.9659H543.933L547.41 30.2727H549.444L545.478 34.4773H545.211L543.649 36.0398ZM542.086 39V27.3636H543.785V39H542.086ZM547.598 39L544.473 34.8523L545.643 33.6648L549.683 39H547.598Z" fill="white"/>
<rect x="454.388" y="9" width="138.612" height="48" rx="24" stroke="url(#paint4_linear_32_10525)" stroke-width="2"/>
</g>
<rect x="675" y="6" width="121" height="54" rx="27" fill="#EE269D"/>
<path d="M699.278 38.5V26.8636H701.034V36.9886H706.307V38.5H699.278ZM711.849 38.6761C711.031 38.6761 710.317 38.4886 709.707 38.1136C709.098 37.7386 708.624 37.214 708.287 36.5398C707.95 35.8655 707.781 35.0777 707.781 34.1761C707.781 33.2708 707.95 32.4792 708.287 31.8011C708.624 31.1231 709.098 30.5966 709.707 30.2216C710.317 29.8466 711.031 29.6591 711.849 29.6591C712.668 29.6591 713.382 29.8466 713.991 30.2216C714.601 30.5966 715.075 31.1231 715.412 31.8011C715.749 32.4792 715.918 33.2708 715.918 34.1761C715.918 35.0777 715.749 35.8655 715.412 36.5398C715.075 37.214 714.601 37.7386 713.991 38.1136C713.382 38.4886 712.668 38.6761 711.849 38.6761ZM711.855 37.25C712.385 37.25 712.825 37.1098 713.173 36.8295C713.522 36.5492 713.779 36.1761 713.946 35.7102C714.116 35.2443 714.202 34.7311 714.202 34.1705C714.202 33.6136 714.116 33.1023 713.946 32.6364C713.779 32.1667 713.522 31.7898 713.173 31.5057C712.825 31.2216 712.385 31.0795 711.855 31.0795C711.321 31.0795 710.878 31.2216 710.526 31.5057C710.177 31.7898 709.918 32.1667 709.747 32.6364C709.58 33.1023 709.497 33.6136 709.497 34.1705C709.497 34.7311 709.58 35.2443 709.747 35.7102C709.918 36.1761 710.177 36.5492 710.526 36.8295C710.878 37.1098 711.321 37.25 711.855 37.25ZM721.473 41.9545C720.78 41.9545 720.183 41.8636 719.683 41.6818C719.187 41.5 718.782 41.2595 718.467 40.9602C718.153 40.661 717.918 40.3333 717.763 39.9773L719.223 39.375C719.325 39.5417 719.462 39.7178 719.632 39.9034C719.806 40.0928 720.041 40.2538 720.337 40.3864C720.636 40.5189 721.02 40.5852 721.49 40.5852C722.134 40.5852 722.666 40.428 723.087 40.1136C723.507 39.803 723.717 39.3068 723.717 38.625V36.9091H723.609C723.507 37.0947 723.359 37.3011 723.166 37.5284C722.977 37.7557 722.715 37.9527 722.382 38.1193C722.049 38.286 721.615 38.3693 721.081 38.3693C720.392 38.3693 719.77 38.2083 719.217 37.8864C718.668 37.5606 718.232 37.0814 717.911 36.4489C717.592 35.8125 717.433 35.0303 717.433 34.1023C717.433 33.1742 717.59 32.3788 717.905 31.7159C718.223 31.053 718.659 30.5455 719.212 30.1932C719.765 29.8371 720.392 29.6591 721.092 29.6591C721.634 29.6591 722.071 29.75 722.405 29.9318C722.738 30.1098 722.998 30.3182 723.183 30.5568C723.373 30.7955 723.518 31.0057 723.621 31.1875H723.746V29.7727H725.411V38.6932C725.411 39.4432 725.236 40.0587 724.888 40.5398C724.539 41.0208 724.068 41.3769 723.473 41.608C722.882 41.839 722.215 41.9545 721.473 41.9545ZM721.456 36.9602C721.945 36.9602 722.357 36.8466 722.695 36.6193C723.036 36.3883 723.293 36.0587 723.467 35.6307C723.645 35.1989 723.734 34.6818 723.734 34.0795C723.734 33.4924 723.647 32.9754 723.473 32.5284C723.299 32.0814 723.043 31.733 722.706 31.483C722.369 31.2292 721.952 31.1023 721.456 31.1023C720.945 31.1023 720.518 31.2348 720.178 31.5C719.837 31.7614 719.579 32.1174 719.405 32.5682C719.234 33.0189 719.149 33.5227 719.149 34.0795C719.149 34.6515 719.236 35.1534 719.411 35.5852C719.585 36.017 719.842 36.3542 720.183 36.5966C720.528 36.839 720.952 36.9602 721.456 36.9602ZM727.689 38.5V29.7727H729.388V38.5H727.689ZM728.547 28.4261C728.251 28.4261 727.998 28.3277 727.786 28.1307C727.577 27.9299 727.473 27.6913 727.473 27.4148C727.473 27.1345 727.577 26.8958 727.786 26.6989C727.998 26.4981 728.251 26.3977 728.547 26.3977C728.842 26.3977 729.094 26.4981 729.303 26.6989C729.515 26.8958 729.621 27.1345 729.621 27.4148C729.621 27.6913 729.515 27.9299 729.303 28.1307C729.094 28.3277 728.842 28.4261 728.547 28.4261ZM733.372 33.3182V38.5H731.673V29.7727H733.304V31.1932H733.412C733.613 30.7311 733.927 30.3598 734.355 30.0795C734.787 29.7992 735.33 29.6591 735.986 29.6591C736.58 29.6591 737.101 29.7841 737.548 30.0341C737.995 30.2803 738.342 30.6477 738.588 31.1364C738.834 31.625 738.957 32.2292 738.957 32.9489V38.5H737.259V33.1534C737.259 32.5208 737.094 32.0265 736.764 31.6705C736.435 31.3106 735.982 31.1307 735.406 31.1307C735.012 31.1307 734.662 31.2159 734.355 31.3864C734.052 31.5568 733.812 31.8068 733.634 32.1364C733.459 32.4621 733.372 32.8561 733.372 33.3182Z" fill="white"/>
<path d="M762.281 33.5306L758.531 37.2806C758.426 37.3856 758.292 37.4572 758.146 37.4861C758.001 37.5151 757.85 37.5003 757.713 37.4435C757.576 37.3867 757.459 37.2904 757.376 37.167C757.294 37.0435 757.25 36.8984 757.25 36.75V33.75H751.25C751.051 33.75 750.86 33.671 750.72 33.5303C750.579 33.3897 750.5 33.1989 750.5 33C750.5 32.8011 750.579 32.6103 750.72 32.4697C750.86 32.329 751.051 32.25 751.25 32.25H757.25V29.25C757.25 29.1016 757.294 28.9565 757.376 28.833C757.459 28.7096 757.576 28.6133 757.713 28.5565C757.85 28.4997 758.001 28.4849 758.146 28.5139C758.292 28.5428 758.426 28.6144 758.531 28.7194L762.281 32.4694C762.35 32.539 762.406 32.6217 762.443 32.7128C762.481 32.8038 762.501 32.9014 762.501 33C762.501 33.0986 762.481 33.1962 762.443 33.2872C762.406 33.3783 762.35 33.461 762.281 33.5306ZM767 24H761.75C761.551 24 761.36 24.079 761.22 24.2197C761.079 24.3603 761 24.5511 761 24.75C761 24.9489 761.079 25.1397 761.22 25.2803C761.36 25.421 761.551 25.5 761.75 25.5H767V40.5H761.75C761.551 40.5 761.36 40.579 761.22 40.7197C761.079 40.8603 761 41.0511 761 41.25C761 41.4489 761.079 41.6397 761.22 41.7803C761.36 41.921 761.551 42 761.75 42H767C767.398 42 767.779 41.842 768.061 41.5607C768.342 41.2794 768.5 40.8978 768.5 40.5V25.5C768.5 25.1022 768.342 24.7206 768.061 24.4393C767.779 24.158 767.398 24 767 24Z" fill="white"/>
<rect x="675" y="6" width="121" height="54" rx="27" stroke="url(#paint5_linear_32_10525)" stroke-width="2"/>
<defs>
<filter id="filter0_d_32_10525" x="0.164825" y="0" width="172.612" height="82" filterUnits="userSpaceOnUse" color-interpolation-filters="sRGB">
<feFlood flood-opacity="0" result="BackgroundImageFix"/>
<feColorMatrix in="SourceAlpha" type="matrix" values="0 0 0 0 0 0 0 0 0 0 0 0 0 0 0 0 0 0 127 0" result="hardAlpha"/>
<feOffset dx="4" dy="8"/>
<feGaussianBlur stdDeviation="8"/>
<feColorMatrix type="matrix" values="0 0 0 0 0 0 0 0 0 0.104577 0 0 0 0 0.436898 0 0 0 0.2 0"/>
<feBlend mode="normal" in2="BackgroundImageFix" result="effect1_dropShadow_32_10525"/>
<feBlend mode="normal" in="SourceGraphic" in2="effect1_dropShadow_32_10525" result="shape"/>
</filter>
<filter id="filter1_b_32_10525" x="228.777" y="4" width="148.612" height="58" filterUnits="userSpaceOnUse" color-interpolation-filters="sRGB">
<feFlood flood-opacity="0" result="BackgroundImageFix"/>
<feGaussianBlur in="BackgroundImageFix" stdDeviation="2"/>
<feComposite in2="SourceAlpha" operator="in" result="effect1_backgroundBlur_32_10525"/>
<feBlend mode="normal" in="SourceGraphic" in2="effect1_backgroundBlur_32_10525" result="shape"/>
</filter>
<filter id="filter2_b_32_10525" x="449.388" y="4" width="148.612" height="58" filterUnits="userSpaceOnUse" color-interpolation-filters="sRGB">
<feFlood flood-opacity="0" result="BackgroundImageFix"/>
<feGaussianBlur in="BackgroundImageFix" stdDeviation="2"/>
<feComposite in2="SourceAlpha" operator="in" result="effect1_backgroundBlur_32_10525"/>
<feBlend mode="normal" in="SourceGraphic" in2="effect1_backgroundBlur_32_10525" result="shape"/>
</filter>
<linearGradient id="paint0_linear_32_10525" x1="-17.4574" y1="4.39778" x2="-12.4519" y2="70.6959" gradientUnits="userSpaceOnUse">
<stop stop-color="white" stop-opacity="0.2"/>
<stop offset="1" stop-color="white" stop-opacity="0"/>
</linearGradient>
<linearGradient id="paint1_linear_32_10525" x1="239.698" y1="10.7752" x2="249.263" y2="67.1337" gradientUnits="userSpaceOnUse">
<stop stop-color="#797583" stop-opacity="0.2"/>
<stop offset="1" stop-color="#363567" stop-opacity="0.2"/>
</linearGradient>
<linearGradient id="paint2_linear_32_10525" x1="203.154" y1="4.39778" x2="208.16" y2="70.6959" gradientUnits="userSpaceOnUse">
<stop stop-color="white" stop-opacity="0.2"/>
<stop offset="1" stop-color="white" stop-opacity="0"/>
</linearGradient>
<linearGradient id="paint3_linear_32_10525" x1="460.31" y1="10.7752" x2="469.875" y2="67.1337" gradientUnits="userSpaceOnUse">
<stop stop-color="#797583" stop-opacity="0.2"/>
<stop offset="1" stop-color="#363567" stop-opacity="0.2"/>
</linearGradient>
<linearGradient id="paint4_linear_32_10525" x1="423.766" y1="4.39778" x2="428.772" y2="70.6959" gradientUnits="userSpaceOnUse">
<stop stop-color="white" stop-opacity="0.2"/>
<stop offset="1" stop-color="white" stop-opacity="0"/>
</linearGradient>
<linearGradient id="paint5_linear_32_10525" x1="648.088" y1="0.965517" x2="655.24" y2="74.9513" gradientUnits="userSpaceOnUse">
<stop stop-color="white" stop-opacity="0.2"/>
<stop offset="1" stop-color="white" stop-opacity="0"/>
</linearGradient>
</defs>
</svg>
